<?xml version="1.0" encoding="UTF-8" standalone="no"?><!DOCTYPE svg PUBLIC "-//W3C//DTD SVG 1.1//EN" "http://www.w3.org/Graphics/SVG/1.1/DTD/svg11.dtd"><svg width="100%" height="100%" viewBox="0 0 893 221" version="1.1" xmlns="http://www.w3.org/2000/svg" xmlns:xlink="http://www.w3.org/1999/xlink" xml:space="preserve" xmlns:serif="http://www.serif.com/" style="fill-rule:evenodd;clip-rule:evenodd;stroke-linejoin:round;stroke-miterlimit:2;"><rect id="Atlas-Logo" serif:id="Atlas Logo" x="0" y="0" width="892.639" height="220.49" style="fill:none;"/><g><path d="M18.84,175.239l54.2,-140l22,-0l53.8,140l-23,-0l-32,-84.4c-0.4,-0.934 -1.167,-3.2 -2.3,-6.8c-1.133,-3.6 -2.433,-7.6 -3.9,-12c-1.467,-4.4 -2.8,-8.434 -4,-12.1c-1.2,-3.667 -2,-6.034 -2.4,-7.1l4.6,-0.2c-0.8,2.266 -1.767,5.133 -2.9,8.6c-1.133,3.466 -2.333,7.133 -3.6,11c-1.267,3.866 -2.5,7.5 -3.7,10.9c-1.2,3.4 -2.2,6.233 -3,8.5l-31.8,83.6l-22,-0Z" style="fill:url(#_Linear1);fill-rule:nonzero;"/><path d="M250.04,175.239l-0,-119.2l-39.2,-0l-0,-20.8l101.2,-0l-0,20.8l-40.4,-0l-0,119.2l-21.6,-0Z" style="fill:url(#_Linear2);fill-rule:nonzero;"/><path d="M398.64,175.239l-0,-140l21.6,-0l-0,119.2l65.6,-0l-0,20.8l-87.2,-0Z" style="fill:url(#_Linear3);fill-rule:nonzero;"/><path d="M563.84,175.239l54.2,-140l22,-0l53.8,140l-23,-0l-32,-84.4c-0.4,-0.934 -1.167,-3.2 -2.3,-6.8c-1.133,-3.6 -2.433,-7.6 -3.9,-12c-1.467,-4.4 -2.8,-8.434 -4,-12.1c-1.2,-3.667 -2,-6.034 -2.4,-7.1l4.6,-0.2c-0.8,2.266 -1.767,5.133 -2.9,8.6c-1.133,3.466 -2.333,7.133 -3.6,11c-1.267,3.866 -2.5,7.5 -3.7,10.9c-1.2,3.4 -2.2,6.233 -3,8.5l-31.8,83.6l-22,-0Z" style="fill:url(#_Linear4);fill-rule:nonzero;"/><path d="M821.64,177.239c-7.6,-0 -14.633,-1 -21.1,-3c-6.467,-2 -12.333,-5.034 -17.6,-9.1c-5.267,-4.067 -9.967,-9.1 -14.1,-15.1l14.8,-17c6.533,9.333 12.8,15.8 18.8,19.4c6,3.6 13.133,5.4 21.4,5.4c5.067,-0 9.667,-0.8 13.8,-2.4c4.133,-1.6 7.4,-3.8 9.8,-6.6c2.4,-2.8 3.6,-6 3.6,-9.6c-0,-2.4 -0.4,-4.667 -1.2,-6.8c-0.8,-2.134 -2.033,-4.067 -3.7,-5.8c-1.667,-1.734 -3.8,-3.334 -6.4,-4.8c-2.6,-1.467 -5.633,-2.767 -9.1,-3.9c-3.467,-1.134 -7.467,-2.1 -12,-2.9c-7.2,-1.467 -13.467,-3.4 -18.8,-5.8c-5.333,-2.4 -9.8,-5.4 -13.4,-9c-3.6,-3.6 -6.267,-7.7 -8,-12.3c-1.733,-4.6 -2.6,-9.767 -2.6,-15.5c-0,-5.6 1.233,-10.8 3.7,-15.6c2.467,-4.8 5.867,-8.967 10.2,-12.5c4.333,-3.534 9.433,-6.267 15.3,-8.2c5.867,-1.934 12.2,-2.9 19,-2.9c7.2,-0 13.8,0.933 19.8,2.8c6,1.866 11.333,4.633 16,8.3c4.667,3.666 8.533,8.166 11.6,13.5l-15.2,15c-2.667,-4.4 -5.667,-8.1 -9,-11.1c-3.333,-3 -7,-5.267 -11,-6.8c-4,-1.534 -8.267,-2.3 -12.8,-2.3c-5.2,-0 -9.733,0.8 -13.6,2.4c-3.867,1.6 -6.9,3.833 -9.1,6.7c-2.2,2.866 -3.3,6.233 -3.3,10.1c-0,2.8 0.533,5.366 1.6,7.7c1.067,2.333 2.7,4.4 4.9,6.2c2.2,1.8 5.167,3.4 8.9,4.8c3.733,1.4 8.2,2.633 13.4,3.7c7.333,1.6 13.867,3.633 19.6,6.1c5.733,2.466 10.6,5.366 14.6,8.7c4,3.333 7.033,7.066 9.1,11.2c2.067,4.133 3.1,8.6 3.1,13.4c-0,8.933 -2.067,16.666 -6.2,23.2c-4.133,6.533 -10,11.566 -17.6,15.1c-7.6,3.533 -16.667,5.3 -27.2,5.3Z" style="fill:url(#_Linear5);fill-rule:nonzero;"/></g><defs><linearGradient id="_Linear1" x1="0" y1="0" x2="1" y2="0" gradientUnits="userSpaceOnUse" gradientTransform="matrix(130,0,0,140,18.84,105.239)"><stop offset="0" style="stop-color:#fafafa;stop-opacity:1"/><stop offset="0.26" style="stop-color:#e6eaeb;stop-opacity:1"/><stop offset="0.46" style="stop-color:#dde3e5;stop-opacity:1"/><stop offset="1" style="stop-color:#a1a0a0;stop-opacity:1"/></linearGradient><linearGradient id="_Linear2" x1="0" y1="0" x2="1" y2="0" gradientUnits="userSpaceOnUse" gradientTransform="matrix(101.2,0,0,140,210.84,105.239)"><stop offset="0" style="stop-color:#fafafa;stop-opacity:1"/><stop offset="0.26" style="stop-color:#e6eaeb;stop-opacity:1"/><stop offset="0.46" style="stop-color:#dde3e5;stop-opacity:1"/><stop offset="1" style="stop-color:#a1a0a0;stop-opacity:1"/></linearGradient><linearGradient id="_Linear3" x1="0" y1="0" x2="1" y2="0" gradientUnits="userSpaceOnUse" gradientTransform="matrix(87.2,0,0,140,398.64,105.239)"><stop offset="0" style="stop-color:#fafafa;stop-opacity:1"/><stop offset="0.26" style="stop-color:#e6eaeb;stop-opacity:1"/><stop offset="0.46" style="stop-color:#dde3e5;stop-opacity:1"/><stop offset="1" style="stop-color:#a1a0a0;stop-opacity:1"/></linearGradient><linearGradient id="_Linear4" x1="0" y1="0" x2="1" y2="0" gradientUnits="userSpaceOnUse" gradientTransform="matrix(130,0,0,140,563.84,105.239)"><stop offset="0" style="stop-color:#fafafa;stop-opacity:1"/><stop offset="0.26" style="stop-color:#e6eaeb;stop-opacity:1"/><stop offset="0.46" style="stop-color:#dde3e5;stop-opacity:1"/><stop offset="1" style="stop-color:#a1a0a0;stop-opacity:1"/></linearGradient><linearGradient id="_Linear5" x1="0" y1="0" x2="1" y2="0" gradientUnits="userSpaceOnUse" gradientTransform="matrix(103.8,0,0,144,768.84,105.239)"><stop offset="0" style="stop-color:#fafafa;stop-opacity:1"/><stop offset="0.26" style="stop-color:#e6eaeb;stop-opacity:1"/><stop offset="0.46" style="stop-color:#dde3e5;stop-opacity:1"/><stop offset="1" style="stop-color:#a1a0a0;stop-opacity:1"/></linearGradient></defs></svg>