<?xml version="1.0" encoding="UTF-8" standalone="no"?><!DOCTYPE svg PUBLIC "-//W3C//DTD SVG 1.1//EN" "http://www.w3.org/Graphics/SVG/1.1/DTD/svg11.dtd"><svg width="100%" height="100%" viewBox="0 0 789 273" version="1.1" xmlns="http://www.w3.org/2000/svg" xmlns:xlink="http://www.w3.org/1999/xlink" xml:space="preserve" xmlns:serif="http://www.serif.com/" style="fill-rule:evenodd;clip-rule:evenodd;stroke-linecap:round;stroke-miterlimit:1.5;"><rect id="Final-Logo---Horizontal" serif:id="Final Logo - Horizontal" x="0" y="0" width="788.271" height="272.302" style="fill:none;"/><clipPath id="_clip1"><rect x="0" y="0" width="788.271" height="272.302"/></clipPath><g clip-path="url(#_clip1)"><g id="Horizontal-Logo" serif:id="Horizontal Logo"><g id="blue"><rect x="14.783" y="11.775" width="398.643" height="235.032" style="fill:#f0ffff;stroke:#191265;stroke-width:16.67px;"/><g transform="matrix(200,0,0,200,385.274,217.329)"></g><text x="39.028px" y="217.329px" style="font-family:'Anton-Regular', 'Anton';font-size:200px;fill:#191265;">B<tspan x="132.731px 210.224px 302.95px " y="217.329px 217.329px 217.329px ">LUE</tspan></text></g><g id="ink"><rect x="413.426" y="11.775" width="353.899" height="235.032" style="fill:#191265;stroke:#191265;stroke-width:16.67px;"/><g transform="matrix(0.78636,0,0,1,42.9342,0)"><g transform="matrix(254.336,0,0,254.336,798.485,239.137)"></g><text x="478.841px" y="239.137px" style="font-family:'Anton-Regular', 'Anton';font-size:254.336px;fill:#f0ffff;">I<tspan x="544.095px 678.396px " y="239.137px 239.137px ">NK</tspan></text></g><g id="studio"><g transform="matrix(8.2004e-17,-1.14658,1.22639,1.4063e-16,-544.281,470.227)"><g transform="matrix(1.22169,0,0,1,-44.3326,0)"><text x="199.974px" y="1061.37px" style="font-family:'Anton-Regular', 'Anton';font-size:62.795px;fill:none;stroke:#f0ffff;stroke-width:3.17px;stroke-linecap:butt;stroke-miterlimit:2;">STUDIO</text></g><g transform="matrix(1.22169,0,0,1,-44.3326,0)"><text x="199.974px" y="1061.37px" style="font-family:'Anton-Regular', 'Anton';font-size:62.795px;fill:#191265;">STUDIO</text></g></g></g></g></g></g></svg>