<?xml version="1.0" encoding="UTF-8" standalone="no"?><!DOCTYPE svg PUBLIC "-//W3C//DTD SVG 1.1//EN" "http://www.w3.org/Graphics/SVG/1.1/DTD/svg11.dtd"><svg width="100%" height="100%" viewBox="0 0 446 526" version="1.1" xmlns="http://www.w3.org/2000/svg" xmlns:xlink="http://www.w3.org/1999/xlink" xml:space="preserve" xmlns:serif="http://www.serif.com/" style="fill-rule:evenodd;clip-rule:evenodd;stroke-linecap:round;stroke-miterlimit:1.5;"><rect id="Final-Logo---Vertical" serif:id="Final Logo - Vertical" x="0" y="0" width="445.775" height="525.186" style="fill:none;"/><g id="Vertical-Logo" serif:id="Vertical Logo"><g id="blue"><rect x="20.745" y="16.174" width="398.643" height="235.032" style="fill:#f0ffff;stroke:#191265;stroke-width:16.67px;"/><g transform="matrix(200,0,0,200,391.237,221.728)"></g><text x="44.991px" y="221.728px" style="font-family:'Anton-Regular', 'Anton';font-size:200px;fill:#191265;">B<tspan x="138.694px 216.186px 308.912px " y="221.728px 221.728px 221.728px ">LUE</tspan></text></g><g id="ink"><rect x="20.76" y="253.265" width="398.613" height="235.032" style="fill:#191265;stroke:#191265;stroke-width:16.67px;"/><g transform="matrix(0.885716,0,0,1,-24.9763,-5.68434e-14)"><g transform="matrix(254.336,0,0,254.336,378.975,480.626)"></g><text x="59.331px" y="480.626px" style="font-family:'Anton-Regular', 'Anton';font-size:254.336px;fill:#f0ffff;">I<tspan x="124.584px 258.885px " y="480.626px 480.626px ">NK</tspan></text></g><g id="studio"><g transform="matrix(9.20568e-17,-1.12913,1.38134,1.40515e-16,-1062.13,707.262)"><g transform="matrix(1.22169,0,0,1,-44.3326,0)"><text x="199.974px" y="1061.37px" style="font-family:'Anton-Regular', 'Anton';font-size:62.795px;fill:none;stroke:#f0ffff;stroke-width:3.02px;stroke-linecap:butt;stroke-miterlimit:2;">STUDIO</text></g><g transform="matrix(1.22169,0,0,1,-44.3326,0)"><text x="199.974px" y="1061.37px" style="font-family:'Anton-Regular', 'Anton';font-size:62.795px;fill:#191265;">STUDIO</text></g></g></g></g></g></svg>