<?xml version="1.0" encoding="UTF-8" standalone="no"?><!DOCTYPE svg PUBLIC "-//W3C//DTD SVG 1.1//EN" "http://www.w3.org/Graphics/SVG/1.1/DTD/svg11.dtd"><svg width="100%" height="100%" viewBox="0 0 1509 416" version="1.1" xmlns="http://www.w3.org/2000/svg" xmlns:xlink="http://www.w3.org/1999/xlink" xml:space="preserve" xmlns:serif="http://www.serif.com/" style="fill-rule:evenodd;clip-rule:evenodd;stroke-linejoin:round;stroke-miterlimit:2;"><rect id="Logo---Transparent-Blue" serif:id="Logo - Transparent Blue" x="0" y="0" width="1508.58" height="415.604" style="fill:none;"/><g><path d="M778.218,4.21l0,406.378l-776.967,-0l-0,-406.378l776.967,-0Zm-300.575,384.93c29.839,-0 51.812,-8.376 65.918,-25.126c14.106,-16.751 21.159,-41.403 21.159,-73.955l-0,-262.247l-69.58,-0l-0,259.399c-0,5.968 -0.306,11.732 -0.916,17.293c-0.61,5.561 -2.136,10.071 -4.577,13.53c-2.442,3.458 -6.443,5.188 -12.004,5.188c-5.425,-0 -9.359,-1.763 -11.8,-5.29c-2.442,-3.526 -4.001,-8.036 -4.68,-13.529c-0.678,-5.494 -1.017,-11.224 -1.017,-17.192l0,-259.399l-69.58,-0l0,262.247c0,32.552 7.053,57.204 21.159,73.955c14.106,16.75 36.079,25.126 65.918,25.126Zm114.543,-3.255l147.908,-0l0,-69.784l-75.073,0l-0,-81.991l67.545,0l0,-67.342l-67.545,0l-0,-69.783l70.394,-0l-0,-69.173l-143.229,-0l-0,358.073Zm-362.956,-0l145.264,-0l-0,-61.036l-73.65,0l0,-297.037l-71.614,-0l-0,358.073Zm-199.382,-0l97.046,-0c21.023,-0 37.232,-4.815 48.625,-14.445c11.393,-9.63 19.26,-23.126 23.6,-40.487c4.34,-17.361 6.511,-37.638 6.511,-60.832c-0,-21.566 -2.747,-39.842 -8.24,-54.83c-5.493,-14.987 -16.31,-24.515 -32.451,-28.584c12.343,-3.256 21.532,-10.105 27.568,-20.549c6.036,-10.444 9.054,-24.075 9.054,-40.894l-0,-15.665c-0,-29.161 -5.934,-50.083 -17.802,-62.765c-11.868,-12.681 -30.823,-19.022 -56.865,-19.022l-97.046,-0l0,358.073Zm77.108,-63.07c-1.763,-0 -4.137,-0.136 -7.121,-0.407l0,-103.76l13.225,0c8.409,0 14.139,2.95 17.191,8.85c3.052,5.9 4.578,13.937 4.578,24.109l-0,44.759c-0,17.633 -9.291,26.449 -27.873,26.449Zm-7.121,-160.116l0,-79.549l15.056,0c10.172,0 15.258,5.765 15.258,17.294l0,36.01c0,7.189 -0.949,13.36 -2.848,18.514c-1.899,5.154 -6.171,7.731 -12.817,7.731l-14.649,0Z" style="fill:#f0ffff;"/><g transform="matrix(0.881133,0,0,1,54.4499,1.13687e-13)"><g transform="matrix(472.876,0,0,472.876,1409.35,410.588)"></g><text x="843.42px" y="410.588px" style="font-family:'Anton-Regular', 'Anton';font-size:472.876px;fill:#f0ffff;">INK</text></g><g transform="matrix(2.09686e-16,-0.859053,1,1.82988e-16,-80.4266,1148.16)"><g transform="matrix(190.374,0,0,190.374,1335.09,1576.81)"></g><text x="852.184px" y="1576.81px" style="font-family:'Anton-Regular', 'Anton';font-size:190.374px;fill:none;stroke:#f0ffff;stroke-width:4.47px;">STUDIO</text></g></g></svg>